<?xml version="1.0" encoding="utf-8"?>
<!-- Generator: Adobe Illustrator 21.1.0, SVG Export Plug-In . SVG Version: 6.00 Build 0)  -->
<svg version="1.1" id="Layer_1" xmlns="http://www.w3.org/2000/svg" xmlns:xlink="http://www.w3.org/1999/xlink" x="0px" y="0px"
	 viewBox="0 0 500 250" style="enable-background:new 0 0 500 250;" xml:space="preserve">
<style type="text/css">
	.st0{fill:#187718;}
	.st1{fill:#146D14;}
	.st2{fill:#31380A;}
	.st3{fill:#2F3308;}
	.st4{fill:#0B5B0B;}
	.st5{fill:#1C5E1C;}
	.st6{fill:#343D0D;}
	.st7{fill:#374211;}
	.st8{fill:#249324;}
	.st9{fill:#1F8C1F;}
	.st10{fill:#286628;}
	.st11{fill:#074F07;}
	.st12{fill:#0A560A;}
	.st13{fill:#8FCCB8;}
	.st14{fill:#8DCE8D;}
	.st15{fill:#8DCC9E;}
	.st16{fill:#99D18C;}
	.st17{fill:#29994F;}
	.st18{fill:#92CACC;}
	.st19{fill:#A8D38C;}
	.st20{fill:#3F511D;}
	.st21{fill:#1B871B;}
	.st22{fill:#3A4715;}
	.st23{fill:#3C4C19;}
	.st24{fill:#1A821A;}
	.st25{fill:#8DCCCA;}
	.st26{fill:#93C2CC;}
	.st27{fill:#D6D88B;}
	.st28{fill:#C2D88B;}
	.st29{fill:#054905;}
	.st30{fill:#167216;}
	.st31{fill:#0E660E;}
	.st32{fill:#9AB9CC;}
	.st33{fill:#96B1CC;}
	.st34{fill:#B29ECC;}
	.st35{fill:#197F19;}
	.st36{fill:#D8CA8B;}
	.st37{fill:#D6C48B;}
	.st38{fill:#41561F;}
	.st39{fill:#B2D68B;}
	.st40{fill:#8FCCA8;}
	.st41{fill:#084F08;}
	.st42{fill:#115611;}
	.st43{fill:#8DCEB5;}
	.st44{fill:#DBBC8A;}
	.st45{fill:#415921;}
	.st46{fill:#697026;}
	.st47{fill:#5A6D26;}
	.st48{fill:#246324;}
	.st49{fill:#376628;}
	.st50{fill:#2A6638;}
	.st51{fill:#116B11;}
	.st52{fill:#435E26;}
	.st53{fill:#D4D68B;}
	.st54{fill:#E0DA89;}
	.st55{fill:#E8C98B;}
	.st56{fill:#DBCC8A;}
	.st57{fill:#9BAFCC;}
	.st58{fill:#9A9CCC;}
	.st59{fill:#466627;}
	.st60{fill:#3F6626;}
	.st61{fill:#91D38C;}
	.st62{fill:#4B6826;}
	.st63{fill:#ED1C24;}
	.st64{fill:#93BCCC;}
	.st65{fill:#30A530;}
	.st66{fill:#289928;}
	.st67{fill:#218E21;}
	.st68{fill:#155B15;}
	.st69{fill:#296629;}
	.st70{fill:#506B26;}
	.st71{fill:#306627;}
	.st72{fill:#38B238;}
	.st73{fill:#34AD34;}
	.st74{fill:#2DA02D;}
	.st75{fill:#2D662E;}
	.st76{fill:#92C6CC;}
	.st77{fill:#9EA6CC;}
	.st78{fill:#0D540D;}
	.st79{fill:#8FB2CC;}
	.st80{fill:#8CD19B;}
	.st81{fill:#EAB88C;}
	.st82{fill:#EDA58E;}
	.st83{fill:#EF8E8E;}
	.st84{fill:#313306;}
	.st85{fill:#3F3A06;}
	.st86{fill:#383506;}
	.st87{fill:#473F07;}
	.st88{font-family:'Rockwell-Condensed';}
	.st89{font-size:160.9087px;}
</style>
<g>
	<g id="XMLID_1_">
		<g>
			<path class="st0" d="M121.1,94l-3.1-7.8v0h0l-1.7-4.4v0c2-0.4,4.1-0.9,6.3-1.5C122.1,83.3,120.8,89.2,121.1,94z"/>
			<path class="st1" d="M118,86.2l3.1,7.8c-2.2,0.3-4.7,0.5-7.3,0.5L118,86.2z"/>
			<path class="st2" d="M120.1,104.6l-2.9,6.1l-2.1-6.4C116.7,104.4,118.3,104.5,120.1,104.6z"/>
			<path class="st3" d="M117.2,110.7l2.9-6.1c-0.3,3.4-1,8.4-1,12.9c-1.4,0.1-3-0.1-4.9-0.5v0L117.2,110.7z"/>
			<path class="st4" d="M118,86.2L118,86.2l-4.2,8.3c-0.1,0-0.1,0-0.2,0l-0.1-0.2l-1.5-3l-1.7-3.4L118,86.2L118,86.2z"/>
			<path class="st4" d="M116.3,81.8l1.7,4.4l-8-3.2l0,0C112,82.6,114.1,82.2,116.3,81.8L116.3,81.8z"/>
			<polygon class="st5" points="110,83 118,86.2 110.2,87.9 105,89 			"/>
			<path class="st6" d="M115,104.3l2.1,6.4l-0.2-0.1l-8.3-7.2C110.8,103.7,112.8,104.1,115,104.3z"/>
			<polygon class="st2" points="117.2,110.7 114.2,116.9 107.8,110.2 107.8,110.2 116.8,110.8 117,110.5 			"/>
			<polygon class="st7" points="117,110.5 116.8,110.8 107.8,110.2 99,109.7 108.4,103.6 108.8,103.4 			"/>
			<path class="st8" d="M116.1,61.7l-10.9-4.8l1.5-5.2C109.4,55.6,113.9,59.6,116.1,61.7z"/>
			<path class="st9" d="M105.2,56.9l10.9,4.8c-2.7,1.1-5.1,2.2-7.5,3.3L105.2,56.9z"/>
			<path class="st6" d="M114.2,116.9L114.2,116.9c-3.5-0.8-7.7-2.7-12.4-5.3l-2.8-1.9l8.7,0.5v0L114.2,116.9z"/>
			<path class="st10" d="M113.5,94.2l0.1,0.2c-6.8,0-14.6-1-21.6-2.7l10.2-0.3h0L113.5,94.2z"/>
			<polygon class="st11" points="113.5,94.2 102.1,91.5 111.9,91.3 			"/>
			<polygon class="st12" points="111.9,91.3 102.1,91.5 102.1,91.5 91.9,91.8 105,89 110.2,87.9 			"/>
			<path class="st13" d="M109.8,137.2c0.5,6.2,0.5,12.9,0.5,19.7l-15.7-27.9L109.8,137.2L109.8,137.2z"/>
			<polygon class="st14" points="110.3,156.9 97,173.8 86.2,171.9 98.3,164.4 			"/>
			<path class="st15" d="M97,173.8l13.3-17c0,1.2,0,2.4,0,3.5c0,5.7-0.4,10.9-1,15.6L97,173.8z"/>
			<polygon class="st15" points="110.3,156.9 110.3,156.9 97.7,148.7 94.6,128.9 			"/>
			<polygon class="st16" points="110.3,156.9 98.3,164.4 83.4,139.3 97.7,148.7 			"/>
			<polygon class="st17" points="110,82.9 110,83 110,83 			"/>
			<path class="st4" d="M110,82.9L110,82.9L110,82.9C110,82.9,110,82.9,110,82.9z"/>
			<polygon class="st11" points="110,83 105,89 94.8,87.1 110,83 			"/>
			<path class="st12" d="M110,83l-15.2,4.2l2.1-3C100.7,84.1,105.1,83.7,110,83L110,83L110,83z"/>
			<path class="st18" d="M109.8,137.2L109.8,137.2l-15.2-8.3l12-8.1C108.4,125.8,109.3,131.3,109.8,137.2z"/>
			<polygon class="st19" points="109.2,176 96,181 86.2,171.9 97,173.8 			"/>
			<path class="st16" d="M96,181l13.3-5c-0.8,5.3-2,10-3.5,14.2L96,181z"/>
			<path class="st20" d="M108.8,103.4l-0.3,0.2l-9.9-0.5v0l-6.9-5.7C96.2,99.8,101.9,102,108.8,103.4z"/>
			<path class="st21" d="M105.2,56.9l3.5,8.1c-2.4,1.1-4.6,2.3-6.6,3.5l-0.1-0.1L105.2,56.9z"/>
			<polygon class="st22" points="108.4,103.6 99,109.7 94.7,106.7 			"/>
			<polygon class="st23" points="108.4,103.6 94.7,106.7 88.6,102.5 98.5,103 			"/>
			<path class="st24" d="M106.7,51.7l-1.5,5.2L102,68.4l-0.2-0.3v0l0-6.6l0-6.6v0C103.5,53.6,105.1,52.6,106.7,51.7z"/>
			<polygon class="st25" points="106.6,120.9 94.6,128.9 66.7,124 83.4,122.7 			"/>
			<path class="st26" d="M106.6,120.9l-23.2,1.8l18.4-11.1C103.9,114.4,105.4,117.5,106.6,120.9z"/>
			<path class="st27" d="M93.2,193.2l-6-9.4h0l18.5,6.4c0,0,0,0,0,0c-1.8,4.7-4,8.6-6.8,11.9L93.2,193.2z"/>
			<polygon class="st28" points="105.7,190.2 87.2,183.8 86.2,171.9 96,181 			"/>
			<path class="st29" d="M105,89l-13,2.8c0,0,0,0,0,0c-0.1,0-0.2-0.1-0.3-0.1l3.2-4.6L105,89z"/>
			<path class="st30" d="M102,68.4l0.1,0.1c0,0-0.1,0-0.1,0.1h0l-7.6-4.4l1.9-4.9v0c0.1,0,0.1-0.1,0.2-0.1l5.4,9v0L102,68.4z"/>
			<path class="st31" d="M101.9,68.6L101.9,68.6c-2,1.1-3.8,2.2-5.5,3.4l-4.1-2.5l0,0l4.9-0.4L101.9,68.6z"/>
			<polygon class="st1" points="101.9,68.6 97.2,69 97.2,69 94.3,64.2 			"/>
			<polygon class="st32" points="101.8,111.6 83.4,122.7 82.3,112 82.3,112 			"/>
			<polygon class="st33" points="101.8,111.6 82.3,112 84.7,101 			"/>
			<polygon class="st34" points="101.8,111.6 84.7,101 71.5,90.7 76.7,94.3 76.9,94.4 82.4,98.2 88.6,102.5 94.7,106.7 99,109.7 			
				"/>
			<polygon class="st0" points="101.8,68.1 96.4,59.1 101.8,61.5 			"/>
			<path class="st35" d="M101.8,54.8l0,6.6l-5.4-2.3C98.2,57.6,100,56.1,101.8,54.8z"/>
			<path class="st9" d="M99.5,43.8l-7.5-5.3L91,34.2C93.7,37.7,97.3,41.3,99.5,43.8z"/>
			<path class="st21" d="M92.1,38.5l7.5,5.3c-1.8,1.5-3.5,3-5.1,4.5L92.1,38.5z"/>
			<path class="st36" d="M98.9,202.1C98.9,202.1,98.9,202.1,98.9,202.1L98.9,202.1L86.5,198l-12.4-4.1l19.1-0.7L98.9,202.1z"/>
			<path class="st37" d="M86.5,198l12.4,4.1c-4.8,5.7-11,9.4-18.5,11.1L86.5,198z"/>
			<polygon class="st38" points="98.5,103 98.5,103 88.6,102.5 91.7,97.3 			"/>
			<polygon class="st39" points="83.4,139.3 98.3,164.4 86.2,171.9 			"/>
			<polygon class="st40" points="94.6,128.9 97.7,148.7 83.4,139.3 			"/>
			<polygon class="st4" points="97.2,69 97.2,69 92.3,69.5 94.3,64.2 			"/>
			<polygon class="st41" points="96.8,84.1 94.8,87.1 91.6,91.7 91.7,87.9 			"/>
			<path class="st42" d="M96.8,84.1l-5.2,3.7l0.1-3.9C93.3,84.1,95,84.1,96.8,84.1z"/>
			<path class="st42" d="M96.4,72L96.4,72C96.4,72,96.4,72,96.4,72L96.4,72z"/>
			<polygon class="st11" points="92.3,69.5 92.3,69.5 96.4,72 96.4,72 87.9,71.5 88.2,67 88.2,67 			"/>
			<path class="st42" d="M96.4,72C96.4,72,96.4,72,96.4,72l-8.9,4l0.3-4.5L96.4,72z"/>
			<path class="st10" d="M87.6,76l8.8-4c-2.8,1.9-5.2,3.7-7.3,5.6h0L82,79.3l-3.3,0.8L87.6,76z"/>
			<path class="st12" d="M96.2,59.3l-1.9,4.9l-2,5.3l0,0L88.2,67C90.8,64.3,93.5,61.6,96.2,59.3z"/>
			<polygon class="st43" points="94.6,128.9 83.4,139.3 66.7,124 			"/>
			<path class="st24" d="M92.1,38.5l2.4,9.8c-1.9,1.8-3.6,3.7-5.1,5.6L91,34.2L92.1,38.5z"/>
			<polygon class="st44" points="87.2,183.8 93.2,193.2 74.1,193.9 65.8,194.2 			"/>
			<polygon class="st17" points="92.3,69.5 92.3,69.5 92.3,69.5 			"/>
			<path class="st5" d="M91.7,84l-0.1,3.9l-0.1,3.9c-0.1,0-0.2,0-0.3-0.1l-1.4-3.4l1.6-4.3C91.6,84,91.7,84,91.7,84z"/>
			<polygon class="st45" points="91.7,97.3 88.6,102.5 87,97.8 			"/>
			<polygon class="st46" points="87,97.8 82.4,98.2 80.5,94.9 91.7,97.3 			"/>
			<path class="st47" d="M91.7,97.3l-11.1-2.4l2.6-3.4C85.2,93.3,88,95.4,91.7,97.3z"/>
			<polygon class="st48" points="91.5,84 89.9,88.3 88.5,84.9 91.5,84 			"/>
			<path class="st49" d="M91.5,84l-3,0.9l-4.4,1.3l-0.5-3.3C86,83.4,88.6,83.8,91.5,84z"/>
			<polygon class="st10" points="89.9,88.3 91.3,91.6 84.1,86.2 84.1,86.2 88.5,84.9 			"/>
			<path class="st50" d="M84.1,86.2l7.2,5.4c-2.3-0.6-4.5-1.2-6.6-1.9L84.1,86.2z"/>
			<path class="st35" d="M91,34.2l-1.7,19.7l-0.2-0.3v0l-1.6-7l-1.6-7c0,0,0,0,0,0C87.6,37,89.3,35.2,91,34.2z"/>
			<polygon class="st1" points="89.1,53.6 89.3,53.9 81.8,56.1 82.5,45.5 89.1,53.6 			"/>
			<path class="st51" d="M81.8,56.1l7.5-2.3c-1.9,2.3-3.5,4.6-4.8,6.8L81.8,56.1z"/>
			<polygon class="st30" points="87.5,46.6 89.1,53.6 82.5,45.5 			"/>
			<path class="st48" d="M82,79.3l7.1-1.7c-2.1,1.8-3.9,3.7-5.5,5.4L82,79.3z"/>
			<polygon class="st52" points="88.6,102.5 82.4,98.2 87,97.8 			"/>
			<path class="st5" d="M87.9,71.5L87.6,76l-4.4-2.8L83,73.1c1.6-2.1,3.4-4.1,5.2-6.1L87.9,71.5z"/>
			<path class="st48" d="M87.6,76l-8.9,4l-0.6,0.2c1.4-2.3,3.1-4.7,5-7.1l0.1,0.1L87.6,76z"/>
			<path class="st0" d="M85.9,39.5l1.6,7l-5-1.1C83.6,43.2,84.7,41.2,85.9,39.5z"/>
			<polygon class="st53" points="86.2,171.9 87.2,183.8 87.2,183.8 81.1,174.3 83.4,139.3 			"/>
			<polygon class="st54" points="81.1,174.3 87.2,183.8 72.9,183.3 72.9,183.3 72.3,160.5 			"/>
			<polygon class="st55" points="87.2,183.8 65.8,194.2 58.6,182.7 72.9,183.3 72.9,183.3 			"/>
			<polygon class="st56" points="86.5,198 80.5,213.3 74.1,193.9 			"/>
			<polygon class="st57" points="84.7,101 82.3,112 82.2,112 58.6,104.5 72.2,102.6 			"/>
			<polygon class="st58" points="84.7,101 72.2,102.6 71.5,90.7 			"/>
			<polygon class="st59" points="84.1,86.2 84.1,86.2 84.7,89.8 77.7,80.4 78,80.4 83.6,82.9 			"/>
			<path class="st60" d="M77.7,80.4l6.9,9.4c-1.3-0.4-2.6-0.9-3.8-1.4l-0.4,0.3l-3-8.3H77.7z"/>
			<polygon class="st31" points="81.8,56.1 84.5,60.6 81.5,60.7 			"/>
			<path class="st11" d="M81.5,60.7l3-0.1c-2.3,3.8-4,7.4-5.1,10.5l-0.9-10.4L81.5,60.7z"/>
			<path class="st49" d="M82,79.3l1.6,3.7L78,80.4c0,0,0.1-0.1,0.1-0.1l0.6-0.2L82,79.3z"/>
			<polygon class="st28" points="83.4,139.3 81.1,174.3 72.3,160.5 			"/>
			<polygon class="st61" points="83.4,139.3 72.3,160.5 66.7,124 			"/>
			<polygon class="st26" points="73.3,112.2 82.2,112 82.3,112 83.4,122.7 62.1,112.4 			"/>
			<polygon class="st18" points="83.4,122.7 66.7,124 62.1,112.4 			"/>
			<path class="st62" d="M83.2,91.5l-2.6,3.4l-0.1-0.2l0.1-0.1v-5.7l0.1-0.1C81.2,89.6,82.1,90.5,83.2,91.5z"/>
			<path class="st4" d="M82.5,45.5l-0.7,10.7l-0.3,4.5l-3,0.1l3.8-15C82.4,45.6,82.4,45.5,82.5,45.5z"/>
			<polygon class="st46" points="80.5,94.9 82.4,98.2 76.9,94.4 78.7,91.5 80.5,94.7 			"/>
			<path class="st12" d="M82.4,45.7l-3.8,15L77.5,65l-0.3,0.1l-1-3.2l-0.1,0C78,55.7,80.2,50.2,82.4,45.7z"/>
			<polygon class="st63" points="82.3,112 82.3,112 82.2,112 			"/>
			<polygon class="st64" points="82.2,112 73.3,112.2 58.6,104.5 			"/>
			<path class="st65" d="M82,24.8L74.2,25l2.8-5.1C78.9,21.9,80.7,23.6,82,24.8z"/>
			<path class="st66" d="M74.2,25l7.8-0.2c-1.3,2.4-2.4,5-3.4,7.8l-0.1-0.1v0L74.2,25z"/>
			<path class="st47" d="M80.5,88.7c0,0.1,0.1,0.1,0.1,0.2l-0.1,0.1v5.7l-0.1,0.1l-1.8-3.2L80.5,88.7z"/>
			<polygon class="st62" points="78.7,91.5 76.9,94.4 77.5,80.4 80.5,88.7 			"/>
			<polygon class="st44" points="80.5,213.3 80.5,213.3 69.4,204.5 74.1,193.9 			"/>
			<path class="st37" d="M69.4,204.5l11.1,8.8c-2.8,0.6-5.8,1-9,1.1h-0.1c-2.2-0.1-4.2-0.3-6.2-0.6L69.4,204.5z"/>
			<path class="st29" d="M78.6,60.7l0.9,10.4c0,0.1-0.1,0.2-0.1,0.4l-0.1,0l-1.5-4.8l-0.5-1.6l0.3-0.1L78.6,60.7z"/>
			<path class="st41" d="M79.2,71.5L79.2,71.5c-0.2,1-0.5,1.9-0.7,2.8l-2.7,0.1L79.2,71.5z"/>
			<polygon class="st41" points="77.7,66.7 79.2,71.5 73.3,72.5 			"/>
			<polygon class="st42" points="79.2,71.5 75.8,74.3 75.6,74.3 75.6,74.3 73.3,72.5 			"/>
			<path class="st67" d="M78.5,32.6L78.5,32.6c0.1,0.1,0,0.2,0,0.3h0l-7.8-1.2l-7.3-1.1l7.5-2.5l2.4,1.5l0.2,0.1L78.5,32.6z"/>
			<path class="st9" d="M78.6,32.9L78.6,32.9c-0.7,2.1-1.4,4.3-2,6.6l-0.1-0.1l-5.8-7.7L78.6,32.9z"/>
			<polygon class="st8" points="78.5,32.6 78.5,32.6 73.6,29.7 74.2,25 74.2,25 			"/>
			<path class="st68" d="M75.8,74.3l2.7-0.1c-0.3,1.2-0.5,2.2-0.7,3.2l-4.8-3L75.8,74.3z"/>
			<path class="st48" d="M77.8,77.4c0,0,0,0.1,0,0.1l-4.2,1.8l-1.9-3.4L77.8,77.4z"/>
			<polygon class="st5" points="73,74.5 77.8,77.4 71.8,75.9 71.7,75.9 69.9,72.5 			"/>
			<path class="st69" d="M73.6,79.3l4.2-1.8c-0.2,1.1-0.3,2.1-0.3,2.8L73.6,79.3z"/>
			<path class="st41" d="M77.2,65.1l0.5,1.6l-4.5,5.8c0.9-3.7,1.8-7.2,2.9-10.5l0.1,0L77.2,65.1z"/>
			<polygon class="st70" points="77.5,80.4 76.9,94.4 76.7,94.3 75.6,89.9 74.5,85.5 74.5,85.5 			"/>
			<polygon class="st62" points="77.5,80.4 74.5,85.5 74.5,85.5 71.5,90.7 70.2,88.7 70.4,88.6 			"/>
			<polygon class="st60" points="77.5,80.4 70.4,88.6 71.9,81.4 71.9,81.4 			"/>
			<polygon class="st71" points="77.5,80.4 71.9,81.4 71.9,81.4 71.7,81.5 71.7,81.4 73.6,79.3 			"/>
			<path class="st72" d="M77,19.9L74.2,25h-0.1l0-0.1h0.1l-2.9-11.4l-0.1,0l0.1-0.2h0.1C73.1,15.5,75.1,17.8,77,19.9z"/>
			<polygon class="st46" points="75.6,89.9 76.7,94.3 71.5,90.7 75.6,89.9 			"/>
			<polygon class="st24" points="76.5,39.4 76.6,39.5 72.4,50.7 72.3,50.7 68.4,35.3 76.4,39.5 			"/>
			<path class="st35" d="M72.4,50.7l4.2-11.2c-1.4,5.4-2.4,10.9-3,16.1L72.4,50.7L72.4,50.7z"/>
			<polygon class="st21" points="76.5,39.4 76.4,39.5 68.4,35.3 70.8,31.7 			"/>
			<polygon class="st42" points="75.8,74.3 73,74.5 69.9,72.5 70.1,72.5 75.6,74.3 75.6,74.3 			"/>
			<polygon class="st68" points="73.3,72.5 75.6,74.3 70.1,72.5 72.8,72.5 			"/>
			<polygon class="st47" points="74.5,85.5 75.6,89.9 75.6,89.9 71.5,90.7 			"/>
			<polygon class="st73" points="71.4,13.5 74.3,24.9 74.2,24.8 74.2,24.8 67.7,20.4 71.3,13.5 			"/>
			<polygon class="st17" points="74.3,24.9 74.2,24.9 74.2,24.8 			"/>
			<polygon class="st65" points="74.2,24.8 74.2,24.8 74.2,24.9 68.8,24.8 65.4,24.7 67.7,20.4 			"/>
			<polygon class="st74" points="74.2,24.9 74.2,25 73.6,29.7 73.4,29.6 73.5,29.5 68.8,24.8 			"/>
			<polygon class="st55" points="74.1,193.9 69.4,204.5 65.2,213.8 63.3,194.1 65.8,194.2 			"/>
			<polygon class="st10" points="71.8,75.9 73.6,79.3 69.6,81 69.6,80.9 69.9,72.5 71.7,75.9 			"/>
			<polygon class="st75" points="73.6,79.3 71.7,81.4 69.5,81.1 69.6,81 			"/>
			<path class="st0" d="M72.3,50.7l1.3,4.9c0,0.2-0.1,0.4-0.1,0.6l-3.4-8v0l-4-9.5l2.3-3.5L72.3,50.7z"/>
			<path class="st1" d="M70.1,48.2l3.4,8l-4.4-2.1c0-0.1,0-0.1,0-0.2h0L70.1,48.2z"/>
			<polygon class="st51" points="73.5,56.2 72.4,57.4 72.3,57.3 69.1,54.2 			"/>
			<path class="st12" d="M72.4,57.4l1.1-1.1c-0.2,1.9-0.4,3.7-0.5,5.5l0,0l-0.1,0l-2.4-2.4L72.4,57.4L72.4,57.4L72.4,57.4z"/>
			<polygon class="st66" points="68.8,24.8 73.5,29.5 73.4,29.6 71,28.1 68.4,26.5 			"/>
			<polygon class="st76" points="73.3,112.2 62.1,112.4 41.1,111.6 53.6,106.5 58.6,104.5 			"/>
			<path class="st29" d="M73,61.8L73,61.8c-0.1,1.8-0.2,3.5-0.2,5.1L71,64.9L73,61.8z"/>
			<polygon class="st41" points="73,61.8 71,64.9 71,65 69.9,62.2 70,62.2 72.9,61.7 			"/>
			<polygon class="st56" points="72.3,160.5 72.9,183.3 58.6,182.7 			"/>
			<path class="st11" d="M72.9,61.7L70,62.2l0,0l0,0v0c-0.1-1.2-0.2-2.5-0.3-3.7l0.9,0.8L72.9,61.7z"/>
			<path class="st42" d="M72.8,72.5h-2.8c0-0.1,0-0.1,0-0.2l2.1-4.4l0.6-1.1C72.7,69,72.7,70.9,72.8,72.5z"/>
			<polygon class="st41" points="72.7,66.8 72.2,68 72.1,67.9 71,65 71,64.9 			"/>
			<path class="st31" d="M72.4,57.4L72.4,57.4L72.4,57.4l-2.8,1c-0.1-1.4-0.3-2.8-0.5-4.3L72.4,57.4L72.4,57.4z"/>
			<path class="st4" d="M72.3,57.4l-1.9,1.9l-0.9-0.8c0,0,0,0,0-0.1L72.3,57.4z"/>
			<polygon class="st39" points="66.7,124 72.3,160.5 62.1,130.6 			"/>
			<polygon class="st28" points="62.1,130.6 72.3,160.5 57.4,137.2 57.4,137.2 			"/>
			<polygon class="st55" points="72.3,160.5 58.6,182.7 45.9,179.9 65.4,166 			"/>
			<polygon class="st54" points="57.4,137.2 72.3,160.5 65.4,166 			"/>
			<polygon class="st77" points="71.5,90.7 72.2,102.6 58.6,104.5 53.6,106.5 			"/>
			<path class="st78" d="M72.2,68l-2.1,4.4c0.2-2.5,0.1-6-0.2-10.1l0,0l1,2.8L72.2,68L72.2,68z"/>
			<polygon class="st59" points="71.9,81.4 70.4,88.6 70.2,88.7 68.2,85.5 66.3,82.5 71.7,81.5 71.7,81.5 			"/>
			<polygon class="st49" points="71.7,81.5 71.7,81.5 66.3,82.5 64.9,80.4 64.9,80.4 69.5,81.1 71.7,81.4 			"/>
			<polygon class="st46" points="70.2,88.7 71.5,90.7 63.8,96 68.2,85.5 			"/>
			<polygon class="st79" points="71.5,90.7 53.6,106.5 41.1,111.6 42.9,110.3 46.3,108 50.6,105 53.6,102.9 58.1,99.9 63.8,96 			
				"/>
			<path class="st74" d="M67.7,20.4l-2.3,4.4l-4.5,0.1c2.6-2.5,7.4-7.3,10.6-11.5l-0.1,0.2L67.7,20.4z"/>
			<polygon class="st8" points="71,28.1 63.5,30.6 65.4,24.7 68.4,26.5 			"/>
			<path class="st9" d="M70.8,31.7l-2.4,3.6l-2.3,3.5h0c-0.8-2.8-1.6-5.6-2.6-8.2L70.8,31.7z"/>
			<path class="st30" d="M70.1,48.2L70.1,48.2l-1,5.7h0c-0.7-4.9-1.6-10.1-3-15.2h0L70.1,48.2z"/>
			<polygon class="st48" points="69.9,72.5 69.6,80.9 69.6,81 69.5,81.1 64.3,74 			"/>
			<path class="st5" d="M69.9,72.5L64.3,74l0,0c-0.6-2.4-1.6-5.1-3-8.1l4.2,3.3l4.2,3.3H69.9z"/>
			<path class="st68" d="M69.6,72.5l-4.2-3.3l2.1-4.6C68.3,67.1,69,69.8,69.6,72.5z"/>
			<path class="st69" d="M64.3,74l5.2,7l-4.6-0.7h0.4C65.3,78.9,65,76.7,64.3,74L64.3,74z"/>
			<polygon class="st74" points="68.8,24.8 68.4,26.5 65.4,24.7 			"/>
			<polygon class="st47" points="66.3,82.5 68.2,85.5 63.8,96 63.8,95.8 64.9,80.4 			"/>
			<polygon class="st42" points="67.5,64.6 65.4,69.2 61.3,66 61.3,65.9 			"/>
			<path class="st78" d="M67.5,64.6l-6.3,1.3l1.4-1.8l3.3-4.1l0.2-0.1C66.6,61.5,67.1,63,67.5,64.6z"/>
			<polygon class="st43" points="62.1,112.4 66.7,124 41.1,111.6 			"/>
			<polygon class="st80" points="66.7,124 62.1,130.6 57.4,137.2 50.3,126 41.1,111.6 			"/>
			<path class="st41" d="M66.2,60.1L66,60.1l-3.3,4.1l0.7-4.9l0.7-4.9C64.9,56.1,65.5,58.1,66.2,60.1z"/>
			<polygon class="st81" points="52.3,193.7 38.4,193.2 58.6,182.7 65.8,194.2 63.3,194.1 			"/>
			<path class="st66" d="M65.4,24.7l-1.9,5.9c-0.8-2-1.7-4-2.6-5.8L65.4,24.7z"/>
			<polygon class="st55" points="57.4,137.2 65.4,166 53.3,166.6 			"/>
			<polygon class="st81" points="65.4,166 45.9,179.9 53.3,166.6 			"/>
			<polygon class="st81" points="63.3,194.1 65.2,213.8 52.3,193.7 			"/>
			<path class="st82" d="M52.3,193.7l12.9,20.1c-5.3-0.8-10-2.6-14.1-5.3v0L52.3,193.7z"/>
			<polygon class="st62" points="64.9,80.4 63.8,95.8 63.7,95.8 62.4,89 62.3,88.4 62.3,88.4 61.8,81.6 62,81.5 			"/>
			<path class="st49" d="M64.9,80.4L62,81.5l-7.8-15C58.4,71.1,62.2,75.9,64.9,80.4z"/>
			<path class="st12" d="M64.2,54.3C64.2,54.3,64.2,54.3,64.2,54.3l-0.7,5l-0.1,0l-3.3-0.5l0,0L64.2,54.3z"/>
			<path class="st4" d="M64.2,54.3l-4.1,4.4l0,0l-3.3-0.5c0,0,0-0.1-0.1-0.1l0.1,0l5.2-2.8l2.1-1.2C64.1,54.2,64.1,54.2,64.2,54.3z"
				/>
			<path class="st51" d="M64.1,54c0,0,0,0.1,0,0.1L62,55.3l-5.1-9.6L64.1,54C64.1,54,64.1,54,64.1,54z"/>
			<path class="st1" d="M64.1,54l-7.2-8.3v-0.2l3.1-0.9h0C61.4,47.4,62.8,50.5,64.1,54z"/>
			<polygon class="st62" points="63.8,95.8 63.8,96 59.9,95.2 62.3,89 62.4,89 63.7,95.8 			"/>
			<polygon class="st46" points="63.8,96 58.1,99.9 58.1,99.8 59.8,95.4 59.9,95.2 			"/>
			<polygon class="st11" points="63.4,59.3 62.7,64.2 56.8,58.2 56.8,58.2 60.1,58.7 63.4,59.3 			"/>
			<path class="st29" d="M56.8,58.2l5.9,6l-1.4,1.8C60.1,63.5,58.6,60.9,56.8,58.2z"/>
			<path class="st59" d="M62.3,88.4l0.1,0.6l-0.1,0l-2.5,6.2L56,94.4l-0.1,0c3.1-2.2,5.3-4.3,6.4-5.7L62.3,88.4z"/>
			<path class="st49" d="M59.3,82.9L59.3,82.9c-0.1-0.1-0.2-0.2-0.2-0.3l2.7-1.1l0.5,6.8l0,0l0,0.2L62,88.4h-0.1l-3.3-2.1L59.3,82.9
				z"/>
			<path class="st17" d="M62,88.4C62,88.4,62,88.4,62,88.4L62,88.4L62,88.4z"/>
			<path class="st48" d="M61.8,81.6l-2.7,1.1h0c0,0,0,0,0,0l-2.5-8.1l-2.5-8.1l7.8,15L61.8,81.6z"/>
			<polygon class="st31" points="56.9,45.7 62,55.3 56.8,58.1 56.8,57.4 			"/>
			<path class="st5" d="M61.9,88.4L61.9,88.4c-3.7,1.5-8.1,2.8-12.7,3.8l-0.7-1.9l12.8-1.9h0L61.9,88.4z"/>
			<polygon class="st50" points="58.6,86.3 61.9,88.4 61.4,88.4 61.4,88.4 47.8,88.1 50.2,86.5 54.6,83.7 			"/>
			<polygon class="st10" points="61.4,88.4 48.6,90.3 47.8,88.1 47.8,88.1 			"/>
			<path class="st9" d="M60,44.7l-6-2.9l-6-2.9l8.5-0.2C57.6,40.3,58.8,42.3,60,44.7z"/>
			<polygon class="st24" points="53.9,41.8 60,44.7 56.9,45.5 54.8,46.1 52.4,46.8 48.1,48 48.1,47.8 48.2,47.8 			"/>
			<polygon class="st52" points="59.9,95.2 59.8,95.4 58.1,99.8 58,99.7 56,94.5 56,94.4 			"/>
			<path class="st49" d="M59.3,82.9l-0.7,3.3l-4-2.6C56.3,83.5,57.8,83.2,59.3,82.9L59.3,82.9z"/>
			<path class="st10" d="M56.6,74.6l2.5,8.1c-3.2-3.5-7.4-7.3-13.2-11.1v0l0.1,0L56.6,74.6z"/>
			<polygon class="st82" points="58.6,182.7 38.4,193.2 45.9,179.9 			"/>
			<path class="st45" d="M55.3,96.8l0.6-2.3c0,0,0,0,0,0l0.1,0l0,0.1l2,5.2l0.1,0l0,0.1l-3.3-1.2L55.3,96.8z"/>
			<polygon class="st38" points="58.1,99.9 53.6,102.9 54.8,98.7 			"/>
			<polygon class="st28" points="57.4,137.2 57.4,137.2 53.3,166.6 41.5,137.2 			"/>
			<polygon class="st61" points="57.4,137.2 41.5,137.2 41.5,137.2 50.3,126 			"/>
			<polygon class="st1" points="56.9,45.5 56.9,45.7 56.8,57.4 56.7,57.4 54.8,46.1 			"/>
			<polygon class="st30" points="56.8,57.4 56.8,58.1 54,51 52.4,46.8 54.8,46.1 56.7,57.4 			"/>
			<path class="st0" d="M54,51l2.8,7.2l-0.1,0c-2.3-3.4-5.1-6.8-8.7-10.2L54,51z"/>
			<polygon class="st5" points="54.2,66.5 56.6,74.6 45.9,71.5 			"/>
			<path class="st67" d="M56.4,38.7l-8.5,0.2l0,0c1.4-1.5,2.8-3.1,4-4.7C53.4,35.1,54.9,36.6,56.4,38.7z"/>
			<path class="st45" d="M56,94.4C56,94.4,56,94.4,56,94.4L56,94.4L56,94.4z"/>
			<path class="st38" d="M56,94.4l-0.6,2.3l-8,2.5C50.7,97.7,53.6,96,56,94.4z"/>
			<polygon class="st20" points="47.3,99.2 55.3,96.8 54.8,98.7 53.6,102.9 49.7,100.6 			"/>
			<path class="st10" d="M54.6,83.7l-4.4,2.8l-0.2-0.1l-3.2-2.2C49.7,84.1,52.3,84,54.6,83.7z"/>
			<polygon class="st42" points="54.2,66.5 45.9,71.5 45.9,71.5 45.5,65.4 			"/>
			<path class="st11" d="M54.2,66.5l-8.6-1.1l-0.4-6.9l0.1-0.4C48.3,60.6,51.3,63.5,54.2,66.5z"/>
			<polygon class="st35" points="52.4,46.8 54,51 48.1,48 			"/>
			<polygon class="st21" points="53.9,41.8 48.2,47.8 48.1,47.8 47.9,38.9 			"/>
			<polygon class="st23" points="53.6,102.9 50.6,105 49.6,100.7 49.7,100.6 			"/>
			<polygon class="st54" points="41.5,137.2 53.3,166.6 32.7,148.5 32.7,148.5 32.7,148.4 41.5,137.2 			"/>
			<polygon class="st82" points="53.3,166.6 45.9,179.9 33.1,172.1 41.4,169.9 			"/>
			<polygon class="st55" points="53.3,166.6 41.4,169.9 32.7,148.5 32.7,148.5 			"/>
			<path class="st83" d="M52.3,193.7l-1.2,14.8c-5.3-3.5-9.6-8.6-12.7-15.3L52.3,193.7z"/>
			<polygon class="st22" points="49.6,100.7 50.6,105 46.3,108 46.2,107.9 49.5,100.7 			"/>
			<path class="st39" d="M50.3,126l-8.8,11.2l-8.8,11.3l0,0l0,0h0c0.1-4.9,0.3-9.7,0.8-14.2l8.4-4.1L50.3,126z"/>
			<polygon class="st43" points="50.3,126 41.8,130.1 41.1,111.6 			"/>
			<path class="st48" d="M50.2,86.5l-2.4,1.6h0v0l-1.9,1.2L41,83.9c0.2,0,0.3,0,0.5,0l8.6,2.4L50.2,86.5z"/>
			<path class="st5" d="M46.9,84.1l3.2,2.2l-8.6-2.4C43.4,84.1,45.2,84.1,46.9,84.1z"/>
			<polygon class="st23" points="47.3,99.2 49.7,100.6 49.6,100.7 49.5,100.7 46.2,107.9 46.8,103.6 			"/>
			<path class="st42" d="M48.6,90.3l0.7,1.9c-3.5,0.8-7.2,1.4-10.7,1.7l7.4-4.6l1.9-1.2L48.6,90.3z"/>
			<path class="st9" d="M48.1,47.8l0,0.2c-1.5-1.4-3-2.8-4.8-4.2c1.2-1.4,2.9-3.1,4.6-4.9l0,0L48.1,47.8z"/>
			<polygon class="st10" points="47.8,88.1 47.8,88.1 47.8,88.1 			"/>
			<path class="st22" d="M47.3,99.2l-0.5,4.4l-0.2,0l-8.3-1.2C41.6,101.5,44.6,100.4,47.3,99.2z"/>
			<polygon class="st7" points="46.8,103.6 46.2,107.9 38.3,102.4 46.6,103.6 			"/>
			<polygon class="st6" points="46.3,108 42.9,110.3 42.7,110.1 42.7,110.1 38.3,102.4 46.2,107.9 			"/>
			<path class="st12" d="M41,83.9l4.9,5.4l-4-0.4L41,83.9C41,83.9,41,83.9,41,83.9z"/>
			<path class="st83" d="M45.9,179.9l-7.4,13.3c-2.7-5.8-4.4-12.8-5.3-21.1L45.9,179.9z"/>
			<path class="st12" d="M45.5,65.4l0.3,6.2v0c0,0,0,0,0,0L43,68.2l1.1-4.8l1.1-4.9L45.5,65.4z"/>
			<path class="st41" d="M45.9,89.3l-7.4,4.6c0,0,0,0,0,0l-0.7-5.2l0.1-0.2l3.9,0.4L45.9,89.3z"/>
			<path class="st29" d="M43,68.2l2.9,3.4c-2.3-1.5-4.8-3-7.6-4.5L36,60l0,0l0,0.1L43,68.2z"/>
			<polygon class="st4" points="45.3,58.1 45.2,58.5 44.1,63.3 36.2,60 36.1,60 36.1,60 36,59.9 			"/>
			<path class="st31" d="M45.3,58.1L36,59.9l-9.3,1.8l14.2-7C42.4,55.7,43.8,56.9,45.3,58.1z"/>
			<polygon class="st11" points="44.1,63.3 43,68.2 36.1,60 36.2,60 			"/>
			<polygon class="st84" points="42.7,110.1 42.9,110.3 27.7,106.1 33,104.3 33,104.3 42.7,110.1 			"/>
			<path class="st85" d="M42.9,110.3l-1.8,1.2c-4.4,2.5-8.5,4.3-11.8,5.2l-3.2-6.1L42.9,110.3z"/>
			<polygon class="st86" points="42.9,110.3 26,110.7 22.9,104.7 27.7,106.1 			"/>
			<polygon class="st2" points="42.7,110.1 33,104.3 33,104.3 38.3,102.4 			"/>
			<path class="st29" d="M40.9,83.9l0.9,5l-3.9-0.4L40.9,83.9C40.9,83.9,40.9,83.9,40.9,83.9z"/>
			<path class="st40" d="M41.1,111.6l0.8,18.5l-8.4,4.1C34.3,125.6,36.5,117.8,41.1,111.6z"/>
			<path class="st81" d="M32.7,148.5l8.7,21.4l-8.3,2.3h0c-0.4-3.7-0.6-7.6-0.6-11.7C32.6,156.4,32.5,152.3,32.7,148.5L32.7,148.5
				L32.7,148.5L32.7,148.5L32.7,148.5z"/>
			<path class="st30" d="M40.9,54.7l-14.2,7c2.2-2.1,6.7-6.1,9.4-10C37.7,52.5,39.3,53.6,40.9,54.7z"/>
			<path class="st12" d="M37.9,88.5l-0.1,0.2l-0.7-5.2c1.3,0.1,2.6,0.3,3.8,0.4L37.9,88.5z"/>
			<path class="st41" d="M38.5,93.9L38.5,93.9L38.5,93.9C38.5,93.9,38.5,93.9,38.5,93.9z"/>
			<path class="st5" d="M37.8,88.7l0.7,5.2c-0.1,0-0.1,0-0.2,0l-6.9-8.8l5.8-1.6L37.8,88.7z"/>
			<polygon class="st4" points="31.4,85.2 38.3,93.9 30.6,87.5 			"/>
			<path class="st5" d="M30.6,87.5l7.7,6.5c-2.7,0.3-5.3,0.5-7.9,0.5L28,85.3L30.6,87.5z"/>
			<path class="st3" d="M38.3,102.4l-5.3,1.9l-5.3,1.8l-4.9-1.4l-0.1-0.2C28.5,104.4,33.7,103.6,38.3,102.4z"/>
			<path class="st4" d="M36,60l2.2,7.1c-3.4-1.8-7.2-3.6-11.5-5.4L36,60L36,60L36,60z"/>
			<path class="st4" d="M37.1,83.5l-5.8,1.6l0.8-2.3C33.8,83.1,35.5,83.3,37.1,83.5z"/>
			<polygon class="st11" points="32.1,82.8 31.4,85.2 30.6,87.5 28,85.3 			"/>
			<path class="st12" d="M32.1,82.8L28,85.3L24,87.8l2.2-6.1C28.2,82.1,30.2,82.5,32.1,82.8z"/>
			<path class="st4" d="M28,85.3l2.4,9.1c0,0,0,0,0,0L24,87.8L28,85.3z"/>
			<path class="st1" d="M24,87.8l6.5,6.6c-3.1,0.1-6.1-0.1-8.6-0.5L24,87.8z"/>
			<path class="st87" d="M26,110.7l3.2,6.1c-2.1,0.6-3.9,0.8-5.5,0.7L26,110.7z"/>
			<path class="st0" d="M26.1,81.7L24,87.8L21.8,94c0.1-2.5-0.2-5.4-0.5-7.9h0L26.1,81.7z"/>
			<path class="st1" d="M26.1,81.7L21.3,86h0c-0.3-2.3-0.7-4.3-0.9-5.8C22.3,80.8,24.3,81.3,26.1,81.7z"/>
			<path class="st85" d="M22.9,104.7l3.1,5.9l-2.2,6.8c0-4.5-0.7-9.5-1-12.9L22.9,104.7z"/>
		</g>
		<g>
		</g>
	</g>
</g>
<text transform="matrix(0.9609 0 0 1 120.9549 194.2305)"><tspan x="0" y="0" class="st83 st88 st89">E</tspan><tspan x="63.7" y="0" class="st81 st88 st89">L</tspan><tspan x="124.1" y="0" class="st54 st88 st89">E</tspan><tspan x="187.8" y="0" class="st16 st88 st89">Q</tspan><tspan x="254.9" y="0" class="st18 st88 st89">U</tspan><tspan x="328.6" y="0" class="st57 st88 st89">I</tspan></text>
</svg>
